<?xml version="1.0" encoding="UTF-8"?>
<svg width="300px" height="128px" viewBox="0 0 300 128" version="1.1" xmlns="http://www.w3.org/2000/svg" xmlns:xlink="http://www.w3.org/1999/xlink">
    <title>Group 10</title>
    <defs>
        <polygon id="path-1" points="0 128 300 128 300 0 0 0"></polygon>
    </defs>
    <g id="Page-1" stroke="none" stroke-width="1" fill="none" fill-rule="evenodd">
        <g id="Desktop-HD" transform="translate(-570.000000, -3594.000000)">
            <g id="Group-10" transform="translate(570.000000, 3594.000000)">
                <path d="M81,128 C81,92.6539678 109.653968,64 145,64 C180.346032,64 209,92.6539678 209,128 L81,128 Z" id="Fill-1" fill="#2E2EFF"></path>
                <path d="M171,26.5 C171,41.1352134 159.134873,53 144.49924,53 C129.863606,53 118,41.1352134 118,26.5 C118,11.8647866 129.863606,0 144.49924,0 C159.134873,0 171,11.8647866 171,26.5" id="Fill-3" fill="#2E2EFF"></path>
                <mask id="mask-2" fill="white">
                    <use xlink:href="#path-1"></use>
                </mask>
                <g id="Clip-6"></g>
                <path d="M0,128 C0,92.6539678 28.6539678,64 64,64 C99.3460322,64 128,92.6539678 128,128 L0,128 Z" id="Fill-5" fill="#2E2EFF" mask="url(#mask-2)"></path>
                <path d="M91,26.5 C91,41.1352134 79.134873,53 64.4992397,53 C49.8636064,53 38,41.1352134 38,26.5 C38,11.8647866 49.8636064,0 64.4992397,0 C79.134873,0 91,11.8647866 91,26.5" id="Fill-7" fill="#2E2EFF" mask="url(#mask-2)"></path>
                <path d="M172,128 C172,92.6539678 200.653968,64 236,64 C271.346032,64 300,92.6539678 300,128 L172,128 Z" id="Fill-8" fill="#2E2EFF" mask="url(#mask-2)"></path>
                <path d="M262,26.5 C262,41.1352134 250.134873,53 235.49924,53 C220.863606,53 209,41.1352134 209,26.5 C209,11.8647866 220.863606,0 235.49924,0 C250.134873,0 262,11.8647866 262,26.5" id="Fill-9" fill="#2E2EFF" mask="url(#mask-2)"></path>
            </g>
        </g>
    </g>
</svg>