
<svg width="335px" height="110px" viewBox="0 0 335 110" version="1.1" xmlns="http://www.w3.org/2000/svg" xmlns:xlink="http://www.w3.org/1999/xlink">
    <defs>
        <polygon id="path-lpoan45f1--1" points="0 110 335 110 335 0 0 0"></polygon>
    </defs>
    <g id="Page-1" stroke="none" stroke-width="1" fill="none" fill-rule="evenodd">
        <g id="Desktop-HD" transform="translate(-553.000000, -699.000000)">
            <g id="Group-19" transform="translate(553.000000, 699.000000)">
                <polygon id="Fill-1" fill="#FFFFFF" points="0 78 13 78 13 17 0 17"></polygon>
                <g id="Group-18">
                    <path d="M232.661385,58.0162879 C232.661385,63.3328109 229.774328,65.7555692 225.823458,65.7555692 C221.835692,65.7555692 218.988606,63.3328109 218.988606,58.0162879 L218.988606,35.3587261 L205.697078,35.3587261 L205.697078,59.1645584 C205.697078,72.2573044 214.699528,78.1679727 225.823458,78.1679727 C236.907418,78.1679727 245.906794,72.2573044 245.906794,59.207657 L245.906794,35.3587261 L232.661385,35.3587261 L232.661385,58.0162879 Z" id="Fill-2" fill="#FFFFFF"></path>
                    <mask id="mask-lpoan45f1--2" fill="white">
                        <use xlink:href="#path-lpoan45f1--1"></use>
                    </mask>
                    <g id="Clip-5"></g>
                    <polygon id="Fill-4" fill="#FFFFFF" mask="url(#mask-lpoan45f1--2)" points="253.236965 77.0603381 266.525418 77.0603381 266.525418 15.8449009 253.236965 15.8449009"></polygon>
                    <polygon id="Fill-6" fill="#FFFFFF" mask="url(#mask-lpoan45f1--2)" points="274.119699 77.0603381 287.408152 77.0603381 287.408152 15.8449009 274.119699 15.8449009"></polygon>
                    <path d="M306.550965,51.8953599 C307.571735,47.770206 310.074465,45.5198422 314.194439,45.5198422 C318.059221,45.5198422 320.64804,47.7271074 321.711854,51.8953599 L306.550965,51.8953599 Z M335.000307,56.1898298 C334.957263,43.137104 326.508242,34.2095321 314.154469,34.2095321 C301.499385,34.2095321 292.795171,43.3094985 292.795171,56.4453431 C292.795171,69.4518919 301.668488,78.1670491 314.747868,78.1670491 C322.431312,78.1670491 328.758854,75.6611721 333.087902,71.3236035 L324.512822,63.3318874 C321.877883,65.7115471 318.526561,66.9860349 315.427357,66.9860349 C310.843117,66.9860349 307.614779,64.8618885 306.507921,60.3119053 L334.745115,60.3119053 C334.914218,59.4191481 335.000307,57.5505149 335.000307,56.1898298 L335.000307,56.1898298 Z" id="Fill-7" fill="#FFFFFF" mask="url(#mask-lpoan45f1--2)"></path>
                    <path d="M177.987793,65.7543378 C172.76711,65.7543378 169.114476,61.7153812 169.114476,56.189522 C169.114476,50.6636628 172.76711,46.6247061 177.987793,46.6247061 C183.33761,46.6247061 186.904155,50.7467816 186.904155,56.189522 C186.904155,61.6291839 183.33761,65.7543378 177.987793,65.7543378 M181.173087,34.2092242 C175.82327,34.2092242 172.170636,36.3364491 169.667906,39.3564312 L169.667906,15.8461323 L156.419422,15.8461323 L156.419422,29.7669876 C155.254146,27.5073883 153.978184,25.3001231 152.52082,23.2375462 C151.54617,21.8522333 149.621465,21.5166797 148.237892,22.5017911 C148.210221,22.520262 148.200997,22.5479682 148.173325,22.5695175 C151.334022,26.522277 154.463972,31.9249972 156.419422,36.8782604 C160.846857,48.7827158 160.597814,61.2843949 156.628496,72.4192321 C155.158833,76.4828165 153.166488,80.3647711 150.765219,83.9665846 C150.79904,83.9881339 150.817488,84.0250756 150.851308,84.0466249 C151.343246,84.3360013 151.878227,84.4714542 152.40706,84.4714542 C153.46165,84.4714542 154.488569,83.9265644 155.06352,82.9506885 C156.170379,81.0666629 157.123507,79.0810478 158.002845,77.0615695 L169.240535,77.0615695 L169.240535,72.5977835 C171.74634,75.8702004 175.525033,78.1667413 181.173087,78.1667413 C192.297016,78.1667413 200.576934,68.475708 200.576934,56.1464234 C200.576934,43.9033359 192.297016,34.2092242 181.173087,34.2092242" id="Fill-8" fill="#FFFFFF" mask="url(#mask-lpoan45f1--2)"></path>
                    <path d="M41.2203392,66.8576626 C35.9104922,66.8576626 32.3470222,62.7325087 32.3470222,57.2928467 C32.3470222,51.8501063 35.9104922,47.7280309 41.2203392,47.7280309 C46.4410226,47.7280309 50.1367007,51.7669876 50.1367007,57.2928467 C50.1367007,62.8187059 46.4410226,66.8576626 41.2203392,66.8576626 M59.360523,36.4608194 L50.0075672,36.4608194 L50.0075672,40.967704 C47.5017622,37.6922087 43.6830998,35.312549 38.0780904,35.312549 C26.9111163,35.312549 18.6742431,45.0066607 18.6742431,57.2497481 C18.6742431,69.5790328 26.9111163,79.270066 38.0350459,79.270066 C43.6830998,79.270066 47.5017622,76.9304265 50.0075672,73.6580096 L50.0075672,78.1648942 L61.3559432,78.1648942 C60.6764549,76.7980522 60.0277128,75.4065823 59.461985,73.9597 C54.551837,61.4118437 54.9023422,48.1282324 59.360523,36.4608194" id="Fill-9" fill="#FFFFFF" mask="url(#mask-lpoan45f1--2)"></path>
                    <path d="M94.5607809,4.79687675 C94.5484824,4.75377813 94.5607809,4.71375798 94.5454078,4.67065935 C94.01965,3.05753946 92.2947952,2.16786074 90.6683279,2.69427964 C89.6352598,3.03291168 88.6083409,3.40232845 87.581422,3.80560842 C85.5029874,4.61832531 83.4675973,5.56341655 81.5244454,6.61009739 C80.0332608,7.41973581 79.4706077,9.2852905 80.2761548,10.7814284 C80.2976771,10.8214486 80.3314977,10.8522333 80.35302,10.889175 C82.9725855,9.2729766 85.7397322,7.8322512 88.7036537,6.66858838 C90.6406564,5.911284 92.5961067,5.31098175 94.5607809,4.79687675" id="Fill-10" fill="#FFFFFF" mask="url(#mask-lpoan45f1--2)"></path>
                    <path d="M119.425438,4.35172954 C119.714452,2.67396171 118.59222,1.08239113 116.919633,0.796093138 C113.851175,0.266595768 110.724299,-0.00123138923 107.625095,-0.00123138923 L107.305336,0.00184708385 C107.296112,0.00184708385 106.988651,0.00492555692 106.979428,0.00492555692 C105.282244,0.0326318146 104.203057,1.42718012 104.230729,3.12957573 C104.230729,3.15420352 104.246102,3.17575283 104.249176,3.20038061 C109.383771,2.86174857 114.478395,3.3050487 119.388543,4.45331915 C119.397767,4.41637748 119.419289,4.38867122 119.425438,4.35172954" id="Fill-11" fill="#FFFFFF" mask="url(#mask-lpoan45f1--2)"></path>
                    <path d="M72.7424443,16.6440725 C72.705549,16.6040524 72.6932505,16.5517183 72.6532807,16.5147767 C71.4418853,15.3295645 69.4956588,15.3511138 68.3057858,16.5701892 C65.993681,18.9406135 63.8845003,21.5419232 62.030512,24.3002351 C61.0866076,25.7101758 61.4586351,27.624986 62.8698799,28.5731557 C62.9098498,28.600862 62.9528943,28.6070189 62.9928642,28.6316467 C65.6032059,24.2048024 68.8807374,20.1627673 72.7424443,16.6440725" id="Fill-12" fill="#FFFFFF" mask="url(#mask-lpoan45f1--2)"></path>
                    <path d="M123.636728,104.454746 C118.597447,106.095573 113.484375,106.923682 108.414347,106.997565 C108.417422,107.049899 108.392825,107.096076 108.395899,107.14841 C108.515809,108.767687 109.865562,109.999076 111.458208,109.999076 C111.535073,109.999076 111.611939,109.995998 111.688804,109.989841 C114.987858,109.746642 118.289986,109.198673 121.5091,108.355172 C123.15094,107.924186 124.134815,106.243339 123.707444,104.596356 C123.692071,104.544022 123.652101,104.50708 123.636728,104.454746" id="Fill-13" fill="#FFFFFF" mask="url(#mask-lpoan45f1--2)"></path>
                    <path d="M84.1603064,101.531121 C83.4838927,103.088828 84.2002763,104.902049 85.7591022,105.576234 C88.7968143,106.896899 91.9728838,107.949737 95.198147,108.703963 C95.4318171,108.759375 95.6685619,108.784003 95.8991575,108.784003 C97.2950292,108.784003 98.5617675,107.826598 98.8907505,106.407422 C98.9030489,106.355088 98.8846013,106.305832 98.8968997,106.253498 C93.7838276,105.373055 88.8521573,103.738386 84.2433208,101.407982 C84.2217985,101.454159 84.1818286,101.484943 84.1603064,101.531121" id="Fill-14" fill="#FFFFFF" mask="url(#mask-lpoan45f1--2)"></path>
                    <path d="M141.605041,15.6315627 C142.635035,14.2831915 142.376768,12.3499104 141.027015,11.318622 C138.398226,9.30837904 135.566512,7.52594313 132.60874,6.01749132 C131.089884,5.23863764 129.24512,5.84509683 128.473393,7.35970559 C128.461095,7.39049032 128.464169,7.42127505 128.451871,7.44898131 C133.174468,9.51771521 137.577306,12.3068118 141.518952,15.7023676 C141.543549,15.6715829 141.580445,15.6623475 141.605041,15.6315627" id="Fill-15" fill="#FFFFFF" mask="url(#mask-lpoan45f1--2)"></path>
                    <path d="M65.4174996,85.2275271 C65.3744551,85.2583119 65.3252613,85.2644688 65.2822168,85.298332 C63.9601356,86.3634837 63.7510623,88.2998433 64.8148765,89.6266652 C66.8963857,92.2125826 69.2238635,94.6199485 71.7358178,96.7841151 C72.3199932,97.2859062 73.0302275,97.5291056 73.7404618,97.5291056 C74.6075011,97.5291056 75.4653166,97.1658457 76.0710143,96.4608754 C76.1048349,96.4208553 76.1140588,96.3685212 76.1448048,96.3254226 C72.0832484,93.2254002 68.4613609,89.5035263 65.4174996,85.2275271" id="Fill-16" fill="#FFFFFF" mask="url(#mask-lpoan45f1--2)"></path>
                    <path d="M144.737144,91.3884753 C141.185972,95.030309 137.062924,98.1826654 132.423341,100.700856 C132.444864,100.743955 132.444864,100.793211 132.472535,100.833231 C133.053636,101.775243 134.059032,102.289348 135.085951,102.289348 C135.639381,102.289348 136.202034,102.138503 136.706269,101.824499 C139.531834,100.069769 142.200593,98.0502911 144.64798,95.8183981 C145.90242,94.6762846 145.994658,92.7276111 144.850904,91.4715941 C144.817084,91.4346524 144.770965,91.4223385 144.737144,91.3884753" id="Fill-17" fill="#FFFFFF" mask="url(#mask-lpoan45f1--2)"></path>
                </g>
            </g>
        </g>
    </g>
</svg>