<?xml version="1.0" encoding="UTF-8"?>
<svg width="840px" height="509px" viewBox="0 0 840 509" version="1.1" xmlns="http://www.w3.org/2000/svg" xmlns:xlink="http://www.w3.org/1999/xlink">
    <title>PEOPLE1</title>
    <defs>
        <polygon id="path-1" points="1.71581237e-13 0 95 0 95 48 1.71581237e-13 48"></polygon>
        <polygon id="path-3" points="0 0 39 0 39 39 0 39"></polygon>
    </defs>
    <g id="Page-1" stroke="none" stroke-width="1" fill="none" fill-rule="evenodd">
        <g id="Desktop-HD" transform="translate(-300.000000, -1711.000000)">
            <g id="PEOPLE1" transform="translate(300.000000, 1711.000000)">
                <text id="La-bulle-c’est-avant" font-family="Helvetica" font-size="16" font-weight="normal" fill="#BDD6FF">
                    <tspan x="255.890625" y="15">La bulle c’est avant tout des étudiants de 42…</tspan>
                </text>
                <g id="Group-27" transform="translate(2.000000, 64.000000)">
                    <path d="M0,178 C0,151.49042 21.2665618,130 47.5,130 C73.7334382,130 95,151.49042 95,178 L0,178 Z" id="Fill-1" fill="#BDD6FF"></path>
                    <path d="M67,102.5 C67,113.269549 58.2692146,122 47.4992525,122 C36.7292905,122 28,113.269549 28,102.5 C28,91.7304508 36.7292905,83 47.4992525,83 C58.2692146,83 67,91.7304508 67,102.5" id="Fill-3" fill="#BDD6FF"></path>
                    <path d="M223,413 C223,386.49042 244.266562,365 270.5,365 C296.733438,365 318,386.49042 318,413 L223,413 Z" id="Fill-5" fill="#BDD6FF"></path>
                    <path d="M290,338.5 C290,349.269549 281.269215,358 270.499253,358 C259.72929,358 251,349.269549 251,338.5 C251,327.730451 259.72929,319 270.499253,319 C281.269215,319 290,327.730451 290,338.5" id="Fill-7" fill="#BDD6FF"></path>
                    <path d="M271,122 C271,95.4904204 292.266562,74 318.5,74 C344.733438,74 366,95.4904204 366,122 L271,122 Z" id="Fill-9" fill="#BDD6FF"></path>
                    <path d="M338,46.5 C338,57.2695492 329.269215,66 318.499253,66 C307.72929,66 299,57.2695492 299,46.5 C299,35.7304508 307.72929,27 318.499253,27 C329.269215,27 338,35.7304508 338,46.5" id="Fill-11" fill="#BDD6FF"></path>
                    <path d="M521,282 C521,255.49042 542.266562,234 568.5,234 C594.733438,234 616,255.49042 616,282 L521,282 Z" id="Fill-13" fill="#BDD6FF"></path>
                    <path d="M588,206.5 C588,217.269549 579.269215,226 568.499253,226 C557.72929,226 549,217.269549 549,206.5 C549,195.730451 557.72929,187 568.499253,187 C579.269215,187 588,195.730451 588,206.5" id="Fill-15" fill="#BDD6FF"></path>
                    <path d="M656,445 C656,418.49042 677.266562,397 703.5,397 C729.733438,397 751,418.49042 751,445 L656,445 Z" id="Fill-17" fill="#BDD6FF"></path>
                    <path d="M723,370.5 C723,381.269549 714.269215,390 703.499253,390 C692.72929,390 684,381.269549 684,370.5 C684,359.730451 692.72929,351 703.499253,351 C714.269215,351 723,359.730451 723,370.5" id="Fill-19" fill="#BDD6FF"></path>
                    <g id="Group-23" transform="translate(741.000000, 46.000000)">
                        <mask id="mask-2" fill="white">
                            <use xlink:href="#path-1"></use>
                        </mask>
                        <g id="Clip-22"></g>
                        <path d="M1.71581237e-13,48 C1.71581237e-13,21.4904204 21.2667645,0 47.5004528,0 C73.734141,0 95.0009055,21.4904204 95.0009055,48 L1.71581237e-13,48 Z" id="Fill-21" fill="#BDD6FF" mask="url(#mask-2)"></path>
                    </g>
                    <g id="Group-26" transform="translate(769.000000, 0.000000)">
                        <mask id="mask-4" fill="white">
                            <use xlink:href="#path-3"></use>
                        </mask>
                        <g id="Clip-25"></g>
                        <path d="M39,19.4997758 C39,30.2694488 30.2692146,39 19.4992525,39 C8.72929045,39 0,30.2694488 0,19.4997758 C0,8.73010269 8.72929045,-0.000448487218 19.4992525,-0.000448487218 C30.2692146,-0.000448487218 39,8.73010269 39,19.4997758" id="Fill-24" fill="#BDD6FF" mask="url(#mask-4)"></path>
                    </g>
                </g>
            </g>
        </g>
    </g>
</svg>