<?xml version="1.0" encoding="UTF-8"?>
<svg width="840px" height="742px" viewBox="0 0 840 742" version="1.1" xmlns="http://www.w3.org/2000/svg" xmlns:xlink="http://www.w3.org/1999/xlink">
    <title>PEOPLE2</title>
    <defs>
        <polygon id="path-1" points="0 0 34 0 34 34 0 34"></polygon>
        <polygon id="path-3" points="0 0 34 0 34 34 0 34"></polygon>
        <polygon id="path-5" points="0 0 34 0 34 34 0 34"></polygon>
        <polygon id="path-7" points="0 0 34 0 34 34 0 34"></polygon>
    </defs>
    <g id="Page-1" stroke="none" stroke-width="1" fill="none" fill-rule="evenodd">
        <g id="Desktop-HD" transform="translate(-300.000000, -2341.000000)">
            <g id="PEOPLE2" transform="translate(300.000000, 2341.000000)">
                <text id="…-qui-se-réunissent" font-family="Helvetica" font-size="16" font-weight="normal" fill="#BDD6FF">
                    <tspan x="262.585938" y="15">… qui se réunissent pour monter des projets</tspan>
                </text>
                <g id="Group-29" transform="translate(147.000000, 116.000000)">
                    <path d="M233,81 C233,58.3560781 251.132223,40 273.5,40 C295.867777,40 314,58.3560781 314,81 L233,81 Z" id="Fill-1" fill="#BDD6FF"></path>
                    <g id="Group-5" transform="translate(256.000000, 0.000000)">
                        <mask id="mask-2" fill="white">
                            <use xlink:href="#path-1"></use>
                        </mask>
                        <g id="Clip-4"></g>
                        <path d="M34,16.999679 C34,26.3881316 26.387916,34 16.9991975,34 C7.61047911,34 0,26.3881316 0,16.999679 C0,7.61122649 7.61047911,-0.000641945472 16.9991975,-0.000641945472 C26.387916,-0.000641945472 34,7.61122649 34,16.999679" id="Fill-3" fill="#BDD6FF" mask="url(#mask-2)"></path>
                    </g>
                    <path d="M51.3377773,232 C31.8888288,220.754005 25.2260725,195.848061 36.4547578,176.36913 C47.6834432,156.890199 72.5510516,150.217171 92,161.463167 L51.3377773,232 Z" id="Fill-6" fill="#BDD6FF"></path>
                    <g id="Group-10" transform="translate(0.000000, 148.000000)">
                        <mask id="mask-4" fill="white">
                            <use xlink:href="#path-3"></use>
                        </mask>
                        <g id="Clip-9"></g>
                        <path d="M25.4989082,2.27992379 C33.6279809,6.97346747 36.4136245,17.3682627 31.7200719,25.4989245 C27.0265192,33.6279817 16.6317041,36.4136199 8.50102675,31.7200762 C0.371954019,27.0265325 -2.41368954,16.6317373 2.27986312,8.50107553 C6.97341577,0.372018341 17.3698355,-2.41361989 25.4989082,2.27992379" id="Fill-8" fill="#BDD6FF" mask="url(#mask-4)"></path>
                    </g>
                    <path d="M92,464.537156 C72.5509409,475.783203 47.683191,469.108551 36.4544418,449.631125 C25.2256926,430.152105 31.8900778,405.246047 51.3375459,394 L92,464.537156 Z" id="Fill-11" fill="#BDD6FF"></path>
                    <path d="M8.50107553,446.279924 C16.6301327,441.58638 27.0265325,444.372018 31.7200762,452.501076 C36.4136199,460.631737 33.6279817,471.026533 25.4989245,475.720076 C17.3682627,480.41362 6.97346747,477.627982 2.27992379,469.498924 C-2.41361989,461.368263 0.372018341,450.973467 8.50107553,446.279924" id="Fill-13" fill="#BDD6FF"></path>
                    <path d="M314,545 C314,567.643922 295.867777,586 273.5,586 C251.132223,586 233,567.643922 233,545 L314,545 Z" id="Fill-15" fill="#BDD6FF"></path>
                    <g id="Group-19" transform="translate(256.000000, 592.000000)">
                        <mask id="mask-6" fill="white">
                            <use xlink:href="#path-5"></use>
                        </mask>
                        <g id="Clip-18"></g>
                        <path d="M0,17.0002407 C0,7.61183251 7.61208402,0 17.0008025,0 C26.3895209,0 34,7.61183251 34,17.0002407 C34,26.3886489 26.3895209,34.0004815 17.0008025,34.0004815 C7.61208402,34.0004815 0,26.3886489 0,17.0002407" id="Fill-17" fill="#BDD6FF" mask="url(#mask-6)"></path>
                    </g>
                    <path d="M494.662223,394 C514.111171,405.245995 520.773927,430.151939 509.545242,449.63087 C498.316557,469.109801 473.448948,475.782829 454,464.536833 L494.662223,394 Z" id="Fill-20" fill="#BDD6FF"></path>
                    <g id="Group-24" transform="translate(512.000000, 444.000000)">
                        <mask id="mask-8" fill="white">
                            <use xlink:href="#path-7"></use>
                        </mask>
                        <g id="Clip-23"></g>
                        <path d="M8.50113191,31.7200762 C0.372020809,27.0265325 -2.4136359,16.6317373 2.27993891,8.50107553 C6.97351372,0.372018341 17.3683778,-2.41361989 25.4990936,2.27992379 C33.6282047,6.97346747 36.4138614,17.3682627 31.7202866,25.4989245 C27.0267118,33.6279817 16.630243,36.4136199 8.50113191,31.7200762" id="Fill-22" fill="#BDD6FF" mask="url(#mask-8)"></path>
                    </g>
                    <path d="M454,161.462844 C473.449059,150.216797 498.316809,156.891449 509.545558,176.368875 C520.774307,195.847895 514.109922,220.753953 494.662454,232 L454,161.462844 Z" id="Fill-25" fill="#BDD6FF"></path>
                    <path d="M537.498924,179.720076 C529.369867,184.41362 518.973467,181.627982 514.279924,173.498924 C509.58638,165.368263 512.372018,154.973467 520.501076,150.279924 C528.631737,145.58638 539.026533,148.372018 543.720076,156.501076 C548.41362,164.631737 545.627982,175.026533 537.498924,179.720076" id="Fill-27" fill="#BDD6FF"></path>
                </g>
                <path d="M64.4346812,367.464477 C34.4260974,290.864721 72.1986073,204.441066 148.798364,174.432482 C225.39812,144.427706 311.821775,182.196408 341.826551,258.796164 C371.835135,335.399728 334.066433,421.819576 257.466676,451.82816 C180.863112,481.836743 94.4432649,444.064233 64.4346812,367.464477 Z" id="Stroke-1-Copy-7" stroke="#FFFFFF" stroke-width="2.25" stroke-linecap="round" stroke-dasharray="15.68,23.68"></path>
            </g>
        </g>
    </g>
</svg>